<svg xmlns="http://www.w3.org/2000/svg" viewBox="0 0 200 60" width="200" height="60">
  <path fill="#000000" d="M0 0h200v60H0z"/>
  <path fill="#000" d="M62.29 4.33c0-1.09-.85-1.92-1.92-1.92h-7.74c-1.07 0-1.92.85-1.92 1.92v51.33c0 1.07.85 1.92 1.92 1.92h7.74c1.07 0 1.92-.85 1.92-1.92V4.33zM70.97 4.33h6.3c1.1 0 1.92-.85 1.92-1.92 0-1.07-.85-1.92-1.92-1.92h-6.3c-1.07 0-1.92.85-1.92 1.92 0 1.07.85 1.92 1.92 1.92zM130.87 4.33c0-1.09-.85-1.92-1.92-1.92h-7.74c-1.07 0-1.92.85-1.92 1.92v51.33c0 1.07.85 1.92 1.92 1.92h7.74c1.07 0 1.92-.85 1.92-1.92V4.33zM139.55 4.33h6.3c1.1 0 1.92-.85 1.92-1.92 0-1.07-.85-1.92-1.92-1.92h-6.3c-1.07 0-1.92.85-1.92 1.92 0 1.07.85 1.92 1.92 1.92z"/>
</svg>
